<?xml version="1.0" encoding="utf-8"?><svg version="1.1" id="Layer_1" xmlns="http://www.w3.org/2000/svg" xmlns:xlink="http://www.w3.org/1999/xlink" x="0px" y="0px" viewBox="0 0 119.09 123.12" style="enable-background:new 0 0 119.09 123.12" xml:space="preserve"><style type="text/css">.st0{fill-rule:evenodd;clip-rule:evenodd;}</style><g><path class="st0" d="M86.56,48.74c17.97,0,32.53,14.57,32.53,32.53c0,17.97-14.57,32.53-32.53,32.53 c-17.97,0-32.53-14.56-32.53-32.53C54.03,63.31,68.59,48.74,86.56,48.74L86.56,48.74z M10.06,63.5l0.16-12.93 c0-0.26,0.22-0.47,0.48-0.47c0.07,0,0.13,0.02,0.19,0.04l8.2,3.45c0.18,0.08,0.29,0.25,0.29,0.44l0,13.76 c0,0.26-0.21,0.48-0.48,0.48c-0.09,0-0.18-0.03-0.26-0.07l-8.33-4.26C10.15,63.84,10.06,63.67,10.06,63.5L10.06,63.5z M15.18,18.05 L4.66,14.15l3.98,10.55l10.49,5.68L15.18,18.05L15.18,18.05z M10.81,107.05c-0.3-0.17-0.5-0.45-0.59-0.75 c-0.08-0.29-0.06-0.62,0.09-0.91l0.05-0.08c0.17-0.28,0.44-0.47,0.73-0.55c0.29-0.08,0.62-0.06,0.9,0.09l7.52,4.29 c0.3,0.17,0.5,0.45,0.59,0.75c0.08,0.29,0.06,0.62-0.09,0.91l-0.05,0.09c-0.17,0.28-0.44,0.47-0.73,0.55 c-0.29,0.08-0.62,0.06-0.91-0.09L10.81,107.05L10.81,107.05z M10.94,101.3c-0.3-0.17-0.5-0.45-0.59-0.76 c-0.08-0.31-0.05-0.65,0.12-0.95c0.17-0.3,0.45-0.5,0.76-0.59c0.31-0.08,0.65-0.05,0.95,0.12l7.34,4.2c0.3,0.17,0.5,0.45,0.59,0.76 l0.01,0.04c0.07,0.3,0.03,0.62-0.13,0.91c-0.17,0.3-0.45,0.5-0.76,0.59c-0.31,0.08-0.65,0.05-0.95-0.12L10.94,101.3L10.94,101.3z M47.23,65.08l-12.12,1.73l0.25,37.81l13.84-3.12c0.21-0.05,0.43,0.06,0.52,0.24c0.22,0.36,0.45,0.72,0.68,1.08 c0.25,0.37,0.49,0.73,0.74,1.08c0.15,0.22,0.1,0.51-0.12,0.66c-0.06,0.04-0.12,0.07-0.19,0.08l-16.81,3.79 c-0.06,0.01-0.12,0.02-0.18,0.03l-0.19,0.01l-0.05,0c-0.45-0.01-0.86-0.2-1.17-0.5c-0.31-0.31-0.5-0.74-0.51-1.21l-0.27-41.33 c-0.03-0.44,0.11-0.87,0.38-1.2l0.01-0.01c0.26-0.32,0.64-0.54,1.08-0.61l15.32-2.18c0.26-0.04,0.5,0.14,0.54,0.4 c0.02,0.11-0.01,0.23-0.07,0.32c-0.23,0.42-0.47,0.86-0.69,1.3c-0.23,0.45-0.45,0.9-0.65,1.35C47.52,64.96,47.38,65.06,47.23,65.08 L47.23,65.08z M23.88,38.53l0.49,80.73l33.65-7.59c0.15-0.03,0.31,0.01,0.42,0.11c0.39,0.32,0.81,0.65,1.24,0.98 c0.44,0.33,0.88,0.65,1.31,0.95c0.22,0.15,0.27,0.45,0.12,0.66c-0.07,0.1-0.17,0.17-0.29,0.19l-37.77,8.52 c-0.26,0.06-0.53,0.05-0.77-0.01c-0.25-0.06-0.48-0.17-0.68-0.33L6.33,111.02c-0.23-0.17-0.4-0.4-0.52-0.64 c-0.12-0.25-0.17-0.53-0.16-0.81L5.55,26.22l-5.4-14.31c-0.19-0.44-0.19-0.89-0.04-1.27l0.02-0.04c0.08-0.2,0.2-0.39,0.34-0.54 c0.15-0.17,0.34-0.31,0.55-0.4c0.38-0.17,0.84-0.21,1.3-0.04l1.33,0.49c-0.14-0.67-0.2-1.35-0.09-1.99 C3.74,7.13,4.33,6.3,5.71,5.89c0.07-0.02,0.14-0.04,0.21-0.05C25.3,3.26,46.23,1.92,65.83,0.02c0.68-0.06,1.31,0.14,1.81,0.52 c0.51,0.39,0.87,0.97,1,1.64l1.53,11L76.78,0.9c0.2-0.37,0.52-0.64,0.89-0.79c0.37-0.14,0.79-0.16,1.18-0.03l20.41,5.58 c0.46,0.12,0.82,0.42,1.04,0.8c0.22,0.38,0.29,0.84,0.16,1.3c-1.58,5.08-5.01,12.11-7.14,17.26l11.2,9.39 c0.36,0.3,0.57,0.73,0.61,1.17c0.04,0.44-0.09,0.89-0.39,1.25l-0.03,0.03c-0.15,0.17-0.32,0.3-0.5,0.39 c-0.21,0.11-0.43,0.17-0.66,0.19l-10.56,1.39l0.04,3.57c0,0.26-0.21,0.48-0.47,0.48c-0.04,0-0.08,0-0.11-0.01 c-0.4-0.09-0.81-0.18-1.23-0.27l-0.04-0.01c-0.38-0.08-0.77-0.15-1.19-0.22c-0.24-0.04-0.41-0.25-0.4-0.49l-0.03-2.61l-57.19,7.51 c-0.29,0.06-0.6,0.04-0.88-0.06c-0.28-0.09-0.53-0.25-0.74-0.49L23.88,38.53L23.88,38.53z M8.98,28.78l0.1,80.03l11.85,9.1 l-0.57-82.97L8.98,28.78L8.98,28.78z M17.05,15.08l0.15,0.06c0.22,0.09,0.43,0.23,0.6,0.4c0.17,0.18,0.31,0.4,0.39,0.65l1.11,3.4 l0.98,3.02l46.88-6.11L65.36,3.51L6.92,9.19c0.1,0.48,0.39,1.47,0.55,2.03l0.04,0.13L17.05,15.08L17.05,15.08z M32.72,43.28 l66.6-8.75l-8.6-7.21l-65.18,7.89L32.72,43.28L32.72,43.28z M67.4,23.51l0-3.59l-46.03,6l1.91,6.1l44.12-5.64L67.4,23.51 L67.4,23.51z M70.84,25.98l12.51-1.33l-12.51-4.27V25.98L70.84,25.98z M71.98,17.04l18.3,6.34l6.19-14.93L79.16,3.73L71.98,17.04 L71.98,17.04z M86.56,76.77c2.49,0,4.5,2.02,4.5,4.5c0,2.49-2.02,4.5-4.5,4.5c-2.49,0-4.5-2.02-4.5-4.5 C82.05,78.79,84.07,76.77,86.56,76.77L86.56,76.77z M86.56,71.93c5.16,0,9.34,4.18,9.34,9.34c0,5.16-4.18,9.34-9.34,9.34 c-5.16,0-9.34-4.18-9.34-9.34C77.22,76.12,81.4,71.93,86.56,71.93L86.56,71.93z M86.56,69.86c6.3,0,11.41,5.11,11.41,11.41 c0,6.3-5.11,11.41-11.41,11.41c-6.3,0-11.41-5.11-11.41-11.41C75.14,74.97,80.25,69.86,86.56,69.86L86.56,69.86z"/></g></svg>