<?xml version="1.0" encoding="UTF-8" standalone="no"?>
<!-- Created with Inkscape (http://www.inkscape.org/) -->

<svg
   version="1.1"
   id="svg2"
   xml:space="preserve"
   width="150"
   height="150"
   viewBox="0 0 150 150"
   sodipodi:docname="logo_no_outline.svg"
   inkscape:export-filename="C:\Users\Christopher Schnick\Desktop\logo_256.png"
   inkscape:export-xdpi="163.84"
   inkscape:export-ydpi="163.84"
   inkscape:version="1.1.2 (b8e25be833, 2022-02-05)"
   xmlns:inkscape="http://www.inkscape.org/namespaces/inkscape"
   xmlns:sodipodi="http://sodipodi.sourceforge.net/DTD/sodipodi-0.dtd"
   xmlns="http://www.w3.org/2000/svg"
   xmlns:svg="http://www.w3.org/2000/svg"><defs
     id="defs6"><clipPath
       clipPathUnits="userSpaceOnUse"
       id="clipPath18"><path
         d="M 0,360 H 576 V 0 H 0 Z"
         id="path16" /></clipPath></defs><sodipodi:namedview
     id="namedview4"
     pagecolor="#ffffff"
     bordercolor="#666666"
     borderopacity="1.0"
     inkscape:pageshadow="2"
     inkscape:pageopacity="0.0"
     inkscape:pagecheckerboard="true"
     showgrid="false"
     inkscape:zoom="1"
     inkscape:cx="331.5"
     inkscape:cy="81.5"
     inkscape:window-width="1918"
     inkscape:window-height="1008"
     inkscape:window-x="0"
     inkscape:window-y="0"
     inkscape:window-maximized="0"
     inkscape:current-layer="g8"
     width="170.77866px" /><g
     id="g8"
     inkscape:groupmode="layer"
     inkscape:label="X-Pipe_final_app"
     transform="matrix(1.3333333,0,0,-1.3333333,-294.77559,336.96186)"><path
       d="m 361.19012,111.51492 h -150.334 v 150.334 h 150.334 z"
       style="fill:none;fill-opacity:1;fill-rule:nonzero;stroke:none;stroke-opacity:1"
       id="path10" /><g
       id="g1026"
       transform="translate(-4.143885,2.8489209)"
       style="stroke:none;stroke-opacity:1"><g
         id="g977"
         style="stroke:none;stroke-opacity:1"><g
           id="g12"
           style="stroke:none;stroke-opacity:1"><g
             id="g14"
             clip-path="url(#clipPath18)"
             style="stroke:none;stroke-opacity:1"><g
               id="g20"
               transform="translate(224.0767,228.4834)"
               style="stroke:none;stroke-opacity:1" /><g
               id="g24"
               transform="translate(297.1084,207.5693)"
               style="stroke:none;stroke-opacity:1" /><g
               id="g28"
               transform="translate(297.1094,206.7285)"
               style="stroke:none;stroke-opacity:1"><path
                 d="M 0,0 V 0.841 Z M -22.918,-31.721 -14.925,-41.968 15.575,0 H 0.423 Z m -2.111,-0.024 24.348,33.086 0.25,0.344 h 19.309 l -33.757,-46.453 z"
                 style="fill:#00ad15;fill-opacity:1;fill-rule:nonzero;stroke:none;stroke-opacity:1"
                 id="path30" /></g><g
               id="g32"
               transform="translate(251.8486,146.0889)"
               style="stroke:none;stroke-opacity:1"><path
                 d="M 0,0 H 17.581 L 26.27,11.892 17.176,23.333 Z"
                 style="fill:#0f4988;fill-opacity:1;fill-rule:nonzero;stroke:none;stroke-opacity:1"
                 id="path34" /></g><g
               id="g36"
               transform="translate(253.3486,146.8398)"
               style="stroke:none;stroke-opacity:1"><path
                 style="fill:#0f4988;fill-opacity:1;fill-rule:nonzero;stroke:none;stroke-opacity:1"
                 d="M -1.5,-1.508 H -3.001 L 15.655,23.837 25.724,11.164 16.472,-1.508 Z"
                 id="path7210" /></g><g
               id="g40"
               transform="translate(348.4717,139.6377)"
               style="stroke:none;stroke-opacity:1"><path
                 style="fill:#00ad15;fill-opacity:1;fill-rule:nonzero;stroke:none;stroke-width:0.999998;stroke-opacity:1"
                 d="M -76.3913,35.3458 C -55.782298,6.1197999 -42.170213,-0.526902 -27.332212,-0.629907 v 0 c 0,0 4.761832,0.59106 6.67383,1.831058 3.990998,2.6139973 5.762768,7.6309349 5.759768,14.085938 0,1.119 -0.05182,2.277142 -0.15381,3.473145 l -0.05565,0.0015 c -0.633,-1.353998 -1.90734,-3.09798 -3.15234,-4.458983 -0.331005,-0.410002 -0.703935,-0.789945 -1.127933,-1.168943 -0.132997,-0.115005 -0.280943,-0.197295 -0.418943,-0.300292 -0.136005,-0.103005 -0.270232,-0.20451 -0.407227,-0.29151 -0.126,-0.081 -0.252788,-0.158978 -0.38379,-0.22998 -0.288,-0.156998 -0.564172,-0.282323 -0.82617,-0.38232 -0.08201,-0.03 -0.164558,-0.0594 -0.24756,-0.08643 -0.431003,-0.144 -0.790928,-0.221348 -1.02393,-0.256343 -0.456998,-0.078 -0.930615,-0.123517 -1.432613,-0.124515 -10.524997,-0.141 -24.025607,7.806204 -42.113612,32.546207 z"
                 id="path3256"
                 sodipodi:nodetypes="ccsccccccccccccccc" /><path
                 style="fill:#00ad15;fill-opacity:1;fill-rule:nonzero;stroke:none;stroke-width:1.33333;stroke-opacity:1"
                 d="m 62.755859,13.986328 c -3.370666,0 -6.421989,0.777839 -8.972656,2.451172 -5.197333,3.397333 -7.496094,9.858016 -7.496094,18.166016 0.02,17.230666 9.772907,43.142964 26.628907,70.404294 L 84.919922,89.248047 C 71.673256,67.233381 64.327563,47.137271 64.351562,35.835938 c -0.0027,-4.16 1.000271,-6.995037 2.710938,-8.345704 1.285333,-1.037333 3.01338,-1.570218 5.248047,-1.574218 1.644,-0.016 3.521937,0.290474 5.585937,0.86914 6.645334,1.8 25.508976,9.137688 53.570316,37.929688 l 0.0801,-0.06641 c -24.78534,-30.66 -51.455021,-50.555443 -68.791021,-50.66211 z"
                 transform="matrix(0.75000002,0,0,-0.75000002,-133.4717,119.3623)"
                 id="path42" /></g></g></g></g></g><path
       d="m 292.96551,210.41842 -23.973,-32.576 9.076,-11.634 32.126,44.21 z"
       style="display:inline;fill:#00ad15;fill-opacity:1;fill-rule:nonzero;stroke:none;stroke-opacity:1"
       id="path26" /></g></svg>
