<?xml version="1.0" encoding="UTF-8" standalone="no"?>
<!-- Created with Inkscape (http://www.inkscape.org/) -->

<svg
   version="1.1"
   id="svg2"
   xml:space="preserve"
   width="338.49078"
   height="162.62372"
   viewBox="0 0 338.49078 162.62372"
   xmlns="http://www.w3.org/2000/svg"
   xmlns:svg="http://www.w3.org/2000/svg"><defs
     id="defs6"><clipPath
       clipPathUnits="userSpaceOnUse"
       id="clipPath28"><path
         d="M 0,360 H 576 V 0 H 0 Z"
         id="path26" /></clipPath></defs><g
     id="g8"
     transform="matrix(1.3333333,0,0,-1.3333333,-221.55932,328.48142)"><g
       id="g12"
       transform="translate(212.689,204.564)"><path
         d="M 0,0 -22.589,-31.345 -14.037,-42.541 16.24,0 Z"
         style="fill:#00ad15;fill-opacity:1;fill-rule:nonzero;stroke:none"
         id="path14" /></g><g
       id="g16"
       transform="translate(170.0425,145.4023)"><path
         d="m 0,0 h 16.571 l 8.184,11.446 -8.567,11.009 z"
         style="fill:#0f4988;fill-opacity:1;fill-rule:nonzero;stroke:none"
         id="path18" /></g><path
       d="m 246.469,167.461 h -23.121 v 9.469 h 23.121 z"
       style="fill:#0f4988;fill-opacity:1;fill-rule:nonzero;stroke:none"
       id="path20" /><g
       id="g22"><g
         id="g24"
         clip-path="url(#clipPath28)"><g
           id="g30"
           transform="translate(267.9434,183.127)"><path
             d="m 0,0 c 0,-0.244 -0.198,-0.441 -0.441,-0.441 h -12.624 c -0.244,0 -0.44,0.197 -0.44,0.441 v 1.541 c 0,0.244 0.196,0.439 0.44,0.439 H -0.441 C -0.198,1.98 0,1.785 0,1.541 Z"
             style="fill:#0f4988;fill-opacity:1;fill-rule:nonzero;stroke:none"
             id="path32" /></g><g
           id="g34"
           transform="translate(223.5532,179.0254)"><path
             d="m 0,0 c 0.244,0 0.441,-0.197 0.441,-0.441 v -12.624 c 0,-0.244 -0.197,-0.441 -0.441,-0.441 h -1.541 c -0.244,0 -0.439,0.197 -0.439,0.441 V -0.441 C -1.98,-0.197 -1.785,0 -1.541,0 Z"
             style="fill:#0f4988;fill-opacity:1;fill-rule:nonzero;stroke:none"
             id="path36" /></g><g
           id="g38"
           transform="translate(247.8267,179.0254)"><path
             d="m 0,0 c 0.244,0 0.44,-0.197 0.44,-0.441 v -12.624 c 0,-0.244 -0.196,-0.441 -0.44,-0.441 h -1.541 c -0.244,0 -0.439,0.197 -0.439,0.441 V -0.441 C -1.98,-0.197 -1.785,0 -1.541,0 Z"
             style="fill:#0f4988;fill-opacity:1;fill-rule:nonzero;stroke:none"
             id="path40" /></g><g
           id="g42"
           transform="translate(316.0957,188.9263)"><path
             d="m 0,0 c 0,-0.244 -0.197,-0.44 -0.44,-0.44 h -12.626 c -0.244,0 -0.44,0.196 -0.44,0.44 v 1.542 c 0,0.242 0.196,0.438 0.44,0.438 H -0.44 C -0.197,1.98 0,1.784 0,1.542 Z"
             style="fill:#0f4988;fill-opacity:1;fill-rule:nonzero;stroke:none"
             id="path44" /></g><g
           id="g46"
           transform="translate(332.2441,188.9263)"><path
             d="m 0,0 c 0,-0.244 -0.197,-0.44 -0.44,-0.44 h -12.625 c -0.244,0 -0.443,0.196 -0.443,0.44 v 1.542 c 0,0.242 0.199,0.438 0.443,0.438 H -0.44 C -0.197,1.98 0,1.784 0,1.542 Z"
             style="fill:#0f4988;fill-opacity:1;fill-rule:nonzero;stroke:none"
             id="path48" /></g><g
           id="g50"
           transform="translate(332.3555,133.7627)"><path
             d="m 0,0 c 0,-0.24 -0.199,-0.44 -0.44,-0.44 h -12.627 c -0.242,0 -0.443,0.2 -0.443,0.44 v 1.542 c 0,0.246 0.201,0.441 0.443,0.441 H -0.44 C -0.199,1.983 0,1.788 0,1.542 Z"
             style="fill:#0f4988;fill-opacity:1;fill-rule:nonzero;stroke:none"
             id="path52" /></g><g
           id="g54"
           transform="translate(267.9717,148.4082)"><path
             d="m 0,0 c 0,-0.245 -0.199,-0.441 -0.441,-0.441 h -12.626 c -0.243,0 -0.44,0.196 -0.44,0.441 v 1.54 c 0,0.245 0.197,0.441 0.44,0.441 H -0.441 C -0.199,1.981 0,1.785 0,1.54 Z"
             style="fill:#0f4988;fill-opacity:1;fill-rule:nonzero;stroke:none"
             id="path56" /></g><g
           id="g58"
           transform="translate(418.2686,178.1885)"><path
             d="m 0,0 c -1.18,2.76 -2.816,5.167 -4.91,7.22 -2.095,2.052 -4.592,3.676 -7.49,4.868 -2.9,1.193 -6.069,1.789 -9.508,1.789 -3.412,0 -6.562,-0.596 -9.446,-1.789 -2.886,-1.192 -5.375,-2.816 -7.469,-4.868 -2.096,-2.053 -3.725,-4.46 -4.89,-7.22 -1.165,-2.761 -1.748,-5.708 -1.748,-8.842 0,-3.136 0.583,-6.075 1.748,-8.822 1.165,-2.746 2.794,-5.146 4.89,-7.198 2.094,-2.054 4.583,-3.677 7.469,-4.869 2.884,-1.193 6.034,-1.79 9.446,-1.79 2.829,0 5.429,0.396 7.802,1.186 2.372,0.791 4.494,1.853 6.366,3.184 1.873,1.332 3.474,2.864 4.806,4.598 1.331,1.734 2.344,3.543 3.038,5.43 H -10.84 c -0.999,-1.804 -2.455,-3.26 -4.369,-4.369 -1.914,-1.11 -4.12,-1.664 -6.616,-1.664 -1.581,0 -3.121,0.27 -4.619,0.811 -1.498,0.541 -2.865,1.304 -4.099,2.288 -1.234,0.985 -2.289,2.185 -3.162,3.6 -0.759,1.229 -1.302,2.592 -1.652,4.072 h -0.02 c 0,0 -0.022,0.118 -0.055,0.315 -0.026,0.121 -0.06,0.235 -0.084,0.357 h 0.031 c -0.188,1.319 -0.478,4.378 0.282,7.156 h -0.022 c 0.389,1.498 0.985,2.878 1.79,4.141 0.804,1.262 1.782,2.351 2.934,3.267 1.15,0.915 2.455,1.629 3.911,2.143 1.456,0.513 3.044,0.77 4.765,0.77 1.664,0 3.196,-0.257 4.597,-0.77 1.401,-0.514 2.657,-1.228 3.766,-2.143 1.109,-0.916 2.053,-2.005 2.83,-3.267 0.777,-1.263 1.359,-2.643 1.748,-4.141 h -14.872 l -0.223,-7.156 H 1.519 c 0.055,0.388 0.11,0.79 0.167,1.206 0.054,0.416 0.083,0.971 0.083,1.665 C 1.769,-5.708 1.179,-2.761 0,0 m -104.062,28.67 c -0.555,0.514 -1.227,0.922 -2.018,1.228 -0.79,0.305 -1.657,0.458 -2.601,0.458 -0.943,0 -1.803,-0.153 -2.58,-0.458 -0.776,-0.306 -1.435,-0.714 -1.976,-1.228 -0.54,-0.513 -0.964,-1.109 -1.269,-1.789 -0.306,-0.68 -0.458,-1.408 -0.458,-2.184 0,-0.777 0.152,-1.506 0.458,-2.185 0.305,-0.68 0.735,-1.276 1.29,-1.789 0.555,-0.514 1.213,-0.916 1.977,-1.207 0.762,-0.291 1.615,-0.437 2.558,-0.437 0.944,0 1.811,0.146 2.601,0.437 0.791,0.291 1.463,0.693 2.018,1.207 0.555,0.513 0.985,1.109 1.291,1.789 0.304,0.679 0.458,1.408 0.458,2.185 0,0.776 -0.154,1.504 -0.458,2.184 -0.306,0.68 -0.736,1.276 -1.291,1.789 m 42.39,-43.13 c -0.707,-1.692 -1.679,-3.155 -2.912,-4.39 -1.235,-1.234 -2.685,-2.191 -4.349,-2.871 -1.665,-0.68 -3.454,-1.019 -5.368,-1.019 -1.914,0 -3.703,0.346 -5.368,1.04 -1.664,0.693 -3.12,1.65 -4.369,2.871 -1.248,1.221 -2.233,2.684 -2.954,4.391 -0.722,1.706 -1.082,3.571 -1.082,5.596 0,2.08 0.36,3.974 1.082,5.68 0.721,1.706 1.699,3.176 2.933,4.411 1.235,1.233 2.684,2.19 4.349,2.871 1.664,0.679 3.453,1.019 5.368,1.019 1.886,0 3.661,-0.34 5.326,-1.019 1.664,-0.681 3.12,-1.638 4.37,-2.871 1.248,-1.235 2.232,-2.713 2.954,-4.433 0.72,-1.719 1.082,-3.606 1.082,-5.658 0,-2.054 -0.354,-3.926 -1.062,-5.618 m 4.848,21.721 c -1.997,2.053 -4.405,3.669 -7.219,4.848 -2.816,1.179 -5.93,1.768 -9.342,1.768 -1.637,0 -3.198,-0.166 -4.681,-0.499 -1.485,-0.333 -2.872,-0.79 -4.162,-1.373 -1.29,-0.583 -2.475,-1.255 -3.557,-2.018 -1.082,-0.763 -2.054,-1.56 -2.913,-2.393 l -0.791,4.994 h -8.239 v -57.466 h 10.112 v 18.726 c 1.72,-1.581 3.772,-2.871 6.158,-3.87 2.386,-0.999 5.132,-1.499 8.239,-1.499 3.44,0 6.554,0.597 9.342,1.79 2.788,1.192 5.174,2.815 7.157,4.869 1.984,2.052 3.516,4.459 4.598,7.219 1.082,2.76 1.623,5.707 1.623,8.842 0,3.135 -0.555,6.082 -1.664,8.843 -1.11,2.76 -2.663,5.166 -4.661,7.219 m -67.465,13.691 c -1.748,1.692 -3.821,3.016 -6.221,3.973 -2.4,0.958 -5.029,1.436 -7.886,1.436 h -23.843 V 6.184 h 10.362 v 11.231 h 13.065 c 1.359,0 2.628,-0.271 3.808,-0.812 1.179,-0.54 2.205,-1.269 3.079,-2.185 0.874,-0.915 1.561,-1.99 2.06,-3.224 0.499,-1.235 0.749,-2.559 0.749,-3.974 0,-1.415 -0.25,-2.733 -0.749,-3.953 -0.499,-1.221 -1.179,-2.282 -2.039,-3.184 -0.86,-0.901 -1.88,-1.609 -3.058,-2.122 -1.18,-0.514 -2.449,-0.77 -3.808,-0.77 h -13.107 v 0.041 h -10.362 V -30.23 h 10.362 v 18.475 h 13.648 c 2.83,0 5.437,0.464 7.823,1.394 2.385,0.929 4.445,2.24 6.179,3.932 1.734,1.692 3.08,3.697 4.037,6.013 0.957,2.316 1.435,4.875 1.435,7.677 0,2.747 -0.485,5.292 -1.456,7.636 -0.972,2.344 -2.331,4.362 -4.078,6.055 m 10.449,-51.182 h 10.194 v 42.818 h -10.194 z"
             style="fill:#0f4988;fill-opacity:1;fill-rule:nonzero;stroke:none"
             id="path60" /></g><g
           id="g62"
           transform="translate(394.3408,174.8125)"><path
             d="M 0,0 C 0.243,0 0.44,-0.139 0.44,-0.314 V -9.337 C 0.44,-9.509 0.243,-9.65 0,-9.65 h -1.541 c -0.242,0 -0.439,0.141 -0.439,0.313 v 9.023 C -1.98,-0.139 -1.783,0 -1.541,0 Z"
             style="fill:#0f4988;fill-opacity:1;fill-rule:nonzero;stroke:none"
             id="path64" /></g><path
           d="m 330.372,182.394 h -3.741 v 6.788 h 3.741 z"
           style="fill:#0f4988;fill-opacity:1;fill-rule:nonzero;stroke:none"
           id="path66" /><g
           id="g68"
           transform="translate(257.7861,142.2754)"><path
             d="m 0,0 c -0.334,-2.961 -1.343,-4.519 -2.885,-5.895 -8.918,-7.962 -30.61,11.484 -50.879,39.652 -1.476,2.052 -4.14,3.039 -5.519,5.081 l -6.992,-9.612 c 0.034,-0.049 0.067,-0.101 0.102,-0.15 22.556,-32.774 49.585,-53.043 61.208,-45.315 C -0.9,-13.537 0.655,-7.764 0,0 m -78.12,95.624 c 6.739,5.563 27.216,-7.286 45.468,-27.822 -20.778,26.333 -43.696,41.49 -53.993,34.642 -10.751,-7.147 -3.396,-35.801 15.615,-65.993 l 7.439,10.256 C -77.958,69.929 -83.867,90.879 -78.12,95.624"
             style="fill:#00ad15;fill-opacity:1;fill-rule:nonzero;stroke:none"
             id="path70" /></g></g></g></g></svg>
