<?xml version="1.0" encoding="UTF-8" standalone="no"?>
<!-- Created with Inkscape (http://www.inkscape.org/) -->

<svg
   version="1.1"
   id="svg2"
   xml:space="preserve"
   width="512"
   height="512"
   viewBox="0 0 512 512"
   sodipodi:docname="logo_app_full.svg"
   inkscape:export-filename="C:\Projects\xpipe\xpipex\app\src\main\resources\io\xpipe\app\resources\img\logo\full\logo_32x32.png"
   inkscape:export-xdpi="6"
   inkscape:export-ydpi="6"
   inkscape:version="1.1.2 (b8e25be833, 2022-02-05)"
   xmlns:inkscape="http://www.inkscape.org/namespaces/inkscape"
   xmlns:sodipodi="http://sodipodi.sourceforge.net/DTD/sodipodi-0.dtd"
   xmlns:xlink="http://www.w3.org/1999/xlink"
   xmlns="http://www.w3.org/2000/svg"
   xmlns:svg="http://www.w3.org/2000/svg"><defs
     id="defs6"><linearGradient
       inkscape:collect="always"
       id="linearGradient2929"><stop
         style="stop-color:#ffffff;stop-opacity:1"
         offset="0"
         id="stop2927" /><stop
         style="stop-color:#b6b4b4;stop-opacity:1"
         offset="1"
         id="stop2925" /></linearGradient><clipPath
       clipPathUnits="userSpaceOnUse"
       id="clipPath18"><path
         d="M 0,360 H 576 V 0 H 0 Z"
         id="path16" /></clipPath><clipPath
       clipPathUnits="userSpaceOnUse"
       id="clipPath18-2"><path
         d="M 0,360 H 576 V 0 H 0 Z"
         id="path16-2" /></clipPath><radialGradient
       inkscape:collect="always"
       xlink:href="#linearGradient2929"
       id="radialGradient2931"
       cx="153.22575"
       cy="262.06192"
       fx="153.22575"
       fy="262.06192"
       r="206"
       gradientUnits="userSpaceOnUse"
       gradientTransform="matrix(1.7339413,-1.7905936,2.0517912,1.9869982,-529.88898,29.70156)"
       spreadMethod="pad" /></defs><sodipodi:namedview
     id="namedview4"
     pagecolor="#4f5151"
     bordercolor="#666666"
     borderopacity="1.0"
     inkscape:pageshadow="2"
     inkscape:pageopacity="0"
     inkscape:pagecheckerboard="true"
     showgrid="false"
     inkscape:zoom="1.4142136"
     inkscape:cx="169.35207"
     inkscape:cy="217.78889"
     inkscape:window-width="1920"
     inkscape:window-height="1017"
     inkscape:window-x="-8"
     inkscape:window-y="-8"
     inkscape:window-maximized="1"
     inkscape:current-layer="layer2"
     width="170.77866px" /><g
     inkscape:groupmode="layer"
     id="layer2"
     inkscape:label="bg"
     style="display:inline"><rect
       style="fill:url(#radialGradient2931);fill-opacity:1;fill-rule:evenodd;stroke:#434342;stroke-width:4;stroke-linecap:round;stroke-miterlimit:4;stroke-dasharray:none;stroke-opacity:1"
       id="rect888"
       width="507.99994"
       height="507.99994"
       x="2.0000281"
       y="2.0000281"
       rx="110.97086"
       ry="110.97086"
       inkscape:label="rect888"
       inkscape:export-filename="C:\Projects\xpipe\xpipex\app\src\main\resources\io\xpipe\app\resources\img\logo\full\logo_256x256.png"
       inkscape:export-xdpi="48.000008"
       inkscape:export-ydpi="48.000008" /></g><g
     inkscape:groupmode="layer"
     id="layer1"
     inkscape:label="shadow"
     style="display:inline"><path
       style="display:inline;fill:#000000;fill-opacity:1;fill-rule:nonzero;stroke:none;stroke-width:3.70794;stroke-opacity:1"
       d="m 108.51306,457.59794 -8.34054,-9.25997 94.05708,-103.73772 36.33358,43.38443 -46.42149,70.04553 z"
       id="path7210-8"
       sodipodi:nodetypes="cccccc" /><path
       style="display:inline;fill:#000000;fill-opacity:1;fill-rule:nonzero;stroke:none;stroke-width:3.70794;stroke-opacity:1"
       d="m 168.74175,53.358016 c -9.28876,0 -17.69747,2.182932 -24.72651,6.878962 -14.3226,9.534289 -20.65743,27.665543 -20.65743,50.981102 0.0551,48.35611 25.4703,121.57245 71.92142,198.07863 l 32.83634,-45.46846 C 191.6109,202.04631 173.07298,146.39279 173.13912,114.67673 c -0.008,-11.67462 2.75649,-19.63083 7.4707,-23.421351 3.54206,-2.911158 8.30416,-4.406661 14.46235,-4.417886 4.53048,-0.04493 9.70561,0.815172 15.39351,2.439154 18.31297,5.051517 67.58392,14.813673 144.91429,95.615493 l 0.22074,-0.18634 C 287.29822,98.661625 216.51568,53.657403 168.7418,53.358045 Z"
       id="path42-1"
       sodipodi:nodetypes="sccccccccccss" /><path
       d="m 297.50011,209.69971 v -3.14694 z m -84.20871,118.69566 29.36905,38.3429 112.06765,-157.03856 h -55.67374 z m -7.75657,0.0899 89.46305,-123.8033 0.9186,-1.28722 h 70.94799 L 242.82948,377.21547 Z"
       style="display:inline;fill:#000000;fill-opacity:1;fill-rule:nonzero;stroke:none;stroke-width:3.70794;stroke-opacity:1"
       id="path30-0" /><path
       style="display:inline;fill:#000000;fill-opacity:1;stroke:none;stroke-width:2.78096px;stroke-linecap:butt;stroke-linejoin:miter;stroke-opacity:1"
       d="m 366.87524,203.44945 -2.72352,-10.88511 -7.92314,10.88211"
       id="path7073"
       sodipodi:nodetypes="ccc" /><path
       style="display:inline;fill:#000000;fill-opacity:1;stroke:none;stroke-width:2.78096px;stroke-linecap:butt;stroke-linejoin:miter;stroke-opacity:1"
       d="m 228.11557,263.82825 -1.00771,-10.08613 -2.85444,3.7275 3.86215,6.35863"
       id="path14245" /><path
       d="m 131.19616,436.60483 h 64.59871 l 31.92643,-44.49825 -33.41454,-42.81067 z"
       style="display:inline;fill:#000000;fill-opacity:1;fill-rule:nonzero;stroke:none;stroke-width:3.70794;stroke-opacity:1"
       id="path34-0" /><path
       style="display:inline;fill:#000000;fill-opacity:1;fill-rule:nonzero;stroke:none;stroke-width:3.70794;stroke-opacity:1"
       d="m 205.53483,328.48517 c 75.72467,109.35973 124.01787,129.3196 178.53785,129.70503 35.56776,-5.9421 44.35169,-24.45028 44.65197,-54.47265 0,-4.18715 -0.14743,-19.52647 -0.52214,-24.00175 l -0.20447,-0.006 c -2.32587,5.06648 -4.29549,22.42253 -8.87005,27.51522 -1.21624,1.53418 -2.5865,2.95588 -4.14443,4.37403 -0.48868,0.43033 -1.03227,0.73824 -1.53933,1.12364 -0.49974,0.38544 -0.99294,0.76526 -1.49631,1.09081 -0.46296,0.30309 -0.92882,0.59485 -1.41017,0.86054 -1.05821,0.58746 -2.07296,1.05641 -3.03563,1.4306 -0.30135,0.11225 -0.60465,0.22227 -0.90962,0.3234 -1.58366,0.53883 -2.90616,0.82825 -3.76229,0.95921 -1.67917,0.29186 -3.41941,0.46218 -5.26392,0.46592 -38.6725,0.5276 -88.27845,-29.20976 -154.74008,-121.7835 z"
       id="path3256-1"
       sodipodi:nodetypes="cccccccccccccccc" /><path
       d="m 297.50011,206.55281 -88.08516,121.89496 33.34837,43.53285 118.04217,-165.42781 z"
       style="display:inline;fill:#000000;fill-opacity:1;fill-rule:nonzero;stroke:none;stroke-width:3.70794;stroke-opacity:1"
       id="path26-4" /></g><g
     id="g8"
     inkscape:groupmode="layer"
     inkscape:label="X-Pipe_final_app"
     transform="matrix(1.3333333,0,0,-1.3333333,-294.77559,336.96186)"
     style="display:inline"><path
       d="M 607.92749,-119.48059 H 244.5199 v 370.08517 h 363.40759 z"
       style="fill:none;fill-opacity:1;fill-rule:nonzero;stroke:none;stroke-width:2.43944;stroke-opacity:1"
       id="path10" /><g
       id="g1026"
       transform="matrix(2.7557616,0,0,2.8063984,-376.59043,-476.59316)"
       style="fill:url(#linearGradient18251);fill-opacity:1;stroke:none;stroke-opacity:1"
       inkscape:label="g1026"><g
         id="g977"
         style="fill:url(#linearGradient2832);fill-opacity:1;stroke:none;stroke-opacity:1"><g
           id="g12"
           style="fill:url(#linearGradient2830);fill-opacity:1;stroke:none;stroke-opacity:1"><g
             id="g14"
             clip-path="url(#clipPath18)"
             style="fill:url(#linearGradient2828);fill-opacity:1;stroke:none;stroke-opacity:1"><g
               id="g20"
               transform="translate(224.0767,228.4834)"
               style="fill:url(#linearGradient2814);fill-opacity:1;stroke:none;stroke-opacity:1" /><g
               id="g24"
               transform="translate(297.1084,207.5693)"
               style="fill:url(#linearGradient2816);fill-opacity:1;stroke:none;stroke-opacity:1" /><g
               id="g28"
               transform="translate(297.1094,206.7285)"
               style="fill:url(#linearGradient2820);fill-opacity:1;stroke:none;stroke-opacity:1"><path
                 id="path30"
                 style="fill:#0b898a;fill-opacity:1;fill-rule:nonzero;stroke:none;stroke-width:1.33333;stroke-opacity:1"
                 d="M 95.269531,55.279297 94.9375,55.738281 62.472656,99.851562 c 27.478669,38.967998 45.628104,47.831408 65.412114,47.968748 0,0 6.3491,-0.78807 8.89843,-2.4414 5.32133,-3.48533 7.68369,-10.17458 7.67969,-18.78125 0,-1.492 -0.0691,-3.03619 -0.20508,-4.63086 l -0.0742,-0.002 c -0.844,1.80533 -2.54312,4.13065 -4.20312,5.94532 -0.44134,0.54667 -0.93858,1.05326 -1.50391,1.55859 -0.17733,0.15334 -0.37459,0.26306 -0.55859,0.40039 -0.18134,0.13734 -0.36031,0.27267 -0.54297,0.38867 -0.168,0.108 -0.33705,0.21197 -0.51172,0.30664 -0.384,0.20933 -0.75223,0.37644 -1.10156,0.50977 -0.10935,0.04 -0.21941,0.0792 -0.33008,0.11523 -0.57467,0.192 -1.05456,0.29514 -1.36523,0.3418 -0.60933,0.104 -1.24083,0.16468 -1.91016,0.16602 -11.83239,0.15851 -26.48435,-7.35228 -45.246094,-29.48438 L 121.01562,55.279297 Z"
                 transform="matrix(0.75000002,0,0,-0.75000002,-71.883817,43.14398)" /></g><g
               id="g32"
               transform="translate(251.8486,146.0889)"
               style="fill:url(#linearGradient2822);fill-opacity:1;stroke:none;stroke-opacity:1" /><g
               id="g40"
               transform="translate(348.4717,139.6377)"
               style="fill:url(#linearGradient2826);fill-opacity:1;stroke:none;stroke-opacity:1"><path
                 style="fill:#0b898a;fill-opacity:1;fill-rule:nonzero;stroke:none;stroke-width:1.33333;stroke-opacity:1"
                 d="m 62.755859,13.986328 c -3.370666,0 -6.421989,0.777839 -8.972656,2.451172 -5.197333,3.397333 -7.496094,9.858016 -7.496094,18.166016 0.02,17.230666 9.772907,43.142964 26.628907,70.404294 L 84.919922,89.248047 C 71.673256,67.233381 64.327563,47.137271 64.351562,35.835938 c -0.0027,-4.16 1.000271,-6.995037 2.710938,-8.345704 1.285333,-1.037333 3.01338,-1.570218 5.248047,-1.574218 1.644,-0.016 3.521937,0.290474 5.585937,0.86914 6.645334,1.8 25.508976,9.137688 53.570316,37.929688 l 0.0801,-0.06641 c -24.78534,-30.66 -51.455021,-50.555443 -68.791021,-50.66211 z"
                 transform="matrix(0.75000002,0,0,-0.75000002,-133.4717,119.3623)"
                 id="path42" /></g></g></g></g></g><g
       id="g36"
       transform="matrix(2.7557616,0,0,2.8063984,318.94888,-64.566456)"
       style="display:inline;fill:url(#linearGradient18253);fill-opacity:1;stroke:none;stroke-opacity:1"><path
         style="fill:#0b898a;fill-opacity:1;fill-rule:nonzero;stroke:none;stroke-opacity:1"
         d="M -1.5,-6.7580001 H -8.2510001 L 15.655,23.837 25.724,11.164 13.19075,-6.7580001 Z"
         id="path7210"
         sodipodi:nodetypes="cccccc" /></g></g></svg>
